<?xml version="1.0" standalone="no"?>
<!DOCTYPE svg PUBLIC "-//W3C//DTD SVG 20010904//EN"
 "http://www.w3.org/TR/2001/REC-SVG-20010904/DTD/svg10.dtd">
<svg version="1.0" xmlns="http://www.w3.org/2000/svg"
 width="829.000000pt" height="829.000000pt" viewBox="0 0 829.000000 829.000000"
 preserveAspectRatio="xMidYMid meet">
<metadata>
Created by potrace 1.14, written by Peter Selinger 2001-2017
</metadata>
<g transform="translate(0.000000,829.000000) scale(0.100000,-0.100000)"
fill="#000000" stroke="none">
<path d="M3899 6426 c-2 -2 -42 -6 -89 -10 -132 -10 -184 -16 -340 -43 -80
-13 -160 -26 -178 -29 -18 -3 -99 -24 -180 -45 -81 -22 -154 -41 -162 -43 -64
-16 -306 -104 -418 -152 -125 -53 -292 -135 -412 -202 -129 -72 -426 -266
-495 -324 -11 -9 -40 -33 -65 -53 -216 -174 -427 -379 -585 -570 -28 -33 -52
-62 -56 -65 -3 -3 -18 -23 -34 -45 -17 -22 -33 -42 -36 -45 -3 -3 -30 -39 -59
-80 -324 -455 -536 -909 -665 -1425 -18 -71 -36 -146 -39 -165 -3 -19 -12 -69
-20 -110 -8 -41 -17 -95 -21 -120 -3 -25 -8 -56 -10 -70 -2 -14 -7 -56 -10
-95 -4 -38 -9 -83 -11 -100 -11 -86 -15 -377 -5 -430 20 -106 74 -190 169
-262 69 -52 145 -77 240 -79 167 -4 314 87 388 239 36 76 41 107 49 312 7 206
15 270 60 530 25 138 101 389 175 575 182 459 505 914 880 1239 36 31 71 62
79 69 8 7 57 46 110 86 301 228 648 407 996 514 92 28 175 52 200 57 18 4 220
47 235 50 9 2 43 6 75 10 33 4 69 9 80 11 105 19 548 26 698 11 439 -44 826
-157 1202 -351 177 -91 401 -232 500 -313 6 -4 48 -39 95 -77 159 -130 318
-290 448 -451 31 -38 60 -72 63 -75 14 -13 145 -202 196 -284 246 -398 424
-908 468 -1346 4 -36 9 -78 10 -95 2 -16 7 -106 10 -199 4 -109 12 -186 22
-215 103 -311 493 -401 714 -164 53 57 95 137 109 210 13 70 4 362 -15 513 -3
19 -7 62 -11 95 -5 50 -36 233 -59 350 -90 454 -341 1039 -620 1445 -214 311
-492 622 -749 835 -27 22 -54 45 -60 51 -57 55 -419 308 -479 335 -15 7 -27
16 -27 21 0 4 -5 8 -10 8 -6 0 -29 12 -52 26 -41 26 -256 135 -378 192 -36 16
-127 53 -202 81 -353 132 -666 207 -1023 246 -27 3 -68 8 -90 11 -44 6 -601
15 -606 10z"/>
<path d="M4097 5264 c-1 -1 -56 -4 -122 -8 -66 -3 -142 -9 -170 -12 -56 -6
-182 -26 -245 -39 -14 -3 -38 -8 -55 -10 -109 -20 -356 -98 -510 -163 -471
-197 -903 -529 -1207 -928 -29 -38 -55 -71 -58 -74 -5 -4 -116 -175 -147 -225
-135 -222 -299 -627 -337 -835 -2 -14 -9 -45 -15 -70 -5 -25 -12 -61 -16 -80
-3 -19 -7 -46 -10 -60 -8 -44 -13 -83 -21 -155 -11 -108 -12 -131 -14 -265 -1
-146 11 -197 69 -287 117 -181 357 -242 555 -141 78 40 187 167 201 235 2 10
8 37 13 59 5 23 10 81 11 130 1 49 4 107 6 129 7 74 16 143 20 166 3 13 8 40
11 59 12 75 65 261 98 348 232 607 726 1076 1341 1273 103 33 286 75 360 83
148 16 189 18 290 18 248 -1 466 -38 695 -117 177 -62 324 -134 475 -234 39
-25 72 -48 75 -51 3 -3 31 -25 64 -49 145 -108 343 -323 466 -506 71 -105 177
-316 219 -435 18 -52 36 -102 39 -110 3 -8 6 -19 7 -25 2 -5 10 -37 18 -70 9
-33 18 -73 21 -90 3 -16 8 -41 11 -55 3 -14 8 -43 11 -65 3 -22 9 -63 13 -91
4 -28 9 -103 10 -167 4 -176 34 -266 122 -355 238 -243 649 -125 720 209 11
49 7 311 -6 394 -2 17 -9 64 -15 105 -17 126 -35 218 -62 320 -11 41 -21 82
-23 90 -38 168 -190 513 -319 725 -63 102 -192 286 -233 330 -10 11 -39 45
-64 75 -186 221 -478 463 -744 617 -362 210 -725 330 -1170 387 -71 10 -372
25 -378 20z"/>
<path d="M4077 4104 c-1 -1 -39 -4 -84 -8 -272 -19 -598 -134 -838 -295 -314
-211 -545 -497 -689 -854 -35 -87 -91 -290 -101 -370 -18 -139 -22 -192 -20
-277 2 -112 6 -126 44 -205 38 -77 109 -148 186 -186 73 -36 91 -40 177 -44
229 -12 429 171 437 400 6 156 18 230 57 340 52 147 118 251 234 367 147 147
327 239 530 270 308 49 605 -49 831 -272 188 -186 279 -404 290 -700 8 -201
155 -367 357 -402 219 -37 436 113 482 336 11 52 8 237 -4 302 -2 10 -7 41
-10 68 -25 180 -103 404 -209 597 -281 512 -814 863 -1401 924 -63 7 -264 14
-269 9z"/>
</g>
</svg>
